<svg width="96" height="96" viewBox="0 0 96 96" fill="none" xmlns="http://www.w3.org/2000/svg">
<path fill-rule="evenodd" clip-rule="evenodd" d="M31.9998 16.0002C31.9998 24.8368 24.8363 32.0003 15.9997 32.0003C7.16303 32.0003 -0.000488281 24.8368 -0.000488281 16.0002C-0.000488281 7.16352 7.16303 0 15.9997 0C24.8363 0 31.9998 7.16352 31.9998 16.0002ZM31.9998 79.9998C31.9998 88.8365 24.8363 96 15.9997 96C7.16303 96 -0.000488281 88.8365 -0.000488281 79.9998C-0.000488281 71.1632 7.16303 63.9997 15.9997 63.9997C24.8363 63.9997 31.9998 71.1632 31.9998 79.9998ZM47.9999 64.0016C56.8365 64.0016 64 56.8381 64 48.0015C64 39.1648 56.8365 32.0013 47.9999 32.0013C39.1632 32.0013 31.9997 39.1648 31.9997 48.0015C31.9997 56.8381 39.1632 64.0016 47.9999 64.0016ZM96.0006 79.9998C96.0006 88.8365 88.8371 96 80.0004 96C71.1638 96 64.0003 88.8365 64.0003 79.9998C64.0003 71.1632 71.1638 63.9997 80.0004 63.9997C88.8371 63.9997 96.0006 71.1632 96.0006 79.9998ZM80.0004 32.0003C88.8371 32.0003 96.0006 24.8368 96.0006 16.0002C96.0006 7.16352 88.8371 0 80.0004 0C71.1638 0 64.0003 7.16352 64.0003 16.0002C64.0003 24.8368 71.1638 32.0003 80.0004 32.0003Z" fill="#303E37"/>
</svg>
