<svg width="110" height="96" viewBox="0 0 110 96" fill="none" xmlns="http://www.w3.org/2000/svg">
<path fill-rule="evenodd" clip-rule="evenodd" d="M55.4332 13.714C85.5304 13.6849 109.857 10.6261 109.857 6.85711C109.857 3.07003 85.2966 0 55 0C24.7033 0 0.143066 3.07003 0.143066 6.85711C0.143066 10.6261 24.4696 13.6849 54.5667 13.714C24.4696 13.7431 0.143066 16.8019 0.143066 20.5709C0.143066 24.34 24.47 27.3988 54.5675 27.4278C24.47 27.4569 0.143066 30.5157 0.143066 34.2847C0.143066 38.0538 24.47 41.1126 54.5675 41.1416C24.47 41.1707 0.143066 44.2295 0.143066 47.9985C0.143066 51.7856 24.7033 54.8556 55 54.8556C85.2966 54.8556 109.857 51.7856 109.857 47.9985C109.857 44.2295 85.53 41.1707 55.4324 41.1416C85.53 41.1126 109.857 38.0538 109.857 34.2847C109.857 30.5157 85.53 27.4569 55.4324 27.4278C85.53 27.3988 109.857 24.34 109.857 20.5709C109.857 16.8019 85.5304 13.7431 55.4332 13.714ZM109.857 61.7153C109.857 65.4843 85.53 68.5431 55.4324 68.5722C85.53 68.6012 109.857 71.66 109.857 75.4291C109.857 79.1981 85.53 82.2569 55.4324 82.286C85.53 82.315 109.857 85.3738 109.857 89.1429C109.857 92.93 85.2966 96 55 96C24.7033 96 0.143066 92.93 0.143066 89.1429C0.143066 85.3738 24.47 82.315 54.5675 82.286C24.47 82.2569 0.143066 79.1981 0.143066 75.4291C0.143066 71.66 24.47 68.6012 54.5675 68.5722C24.47 68.5431 0.143066 65.4843 0.143066 61.7153C0.143066 57.9282 24.7033 54.8582 55 54.8582C85.2966 54.8582 109.857 57.9282 109.857 61.7153Z" fill="#DADEE3"/>
</svg>
