<svg width="50" height="50" viewBox="0 0 50 50" fill="none" xmlns="http://www.w3.org/2000/svg">
<path d="M22.5836 2.47087C23.5977 0.509709 26.4023 0.509709 27.4163 2.47087L33.8735 14.9595C34.1322 15.4599 34.54 15.8677 35.0406 16.1264L47.529 22.5836C49.4903 23.5977 49.4903 26.4023 47.529 27.4163L35.0406 33.8735C34.54 34.1322 34.1322 34.54 33.8735 35.0406L27.4163 47.529C26.4023 49.4903 23.5977 49.4903 22.5836 47.529L16.1264 35.0406C15.8677 34.54 15.4599 34.1322 14.9595 33.8735L2.47087 27.4163C0.509709 26.4023 0.509709 23.5977 2.47087 22.5836L14.9595 16.1264C15.4599 15.8677 15.8677 15.4599 16.1264 14.9595L22.5836 2.47087Z" fill="none" stroke="white" stroke-width="2"/>
</svg>
